<?xml version="1.0" encoding="utf-8"?>
<!-- Generator: Adobe Illustrator 27.7.0, SVG Export Plug-In . SVG Version: 6.00 Build 0)  -->
<svg version="1.1" id="레이어_1" xmlns="http://www.w3.org/2000/svg" xmlns:xlink="http://www.w3.org/1999/xlink" x="0px"
	 y="0px" viewBox="0 0 1366 294.3" style="enable-background:new 0 0 1366 294.3;" xml:space="preserve">
<g>
	<path d="M211.1,84.7v97.3c0,18.1,6.6,37.9,7.4,39.6v0.8h-57.7v-0.8c0-1.6,6.6-21.4,6.6-39.6v-103l-52.7,143.4h-13.2L44.6,79.7
		c0,1.6,0,4.1,0,5.8V163c0,26.4,13.2,55.2,14,58.5v1.6H19v-1.6c0.8-3.3,14-32.1,14-58.5V85.5c0-18.1-9.9-37.9-10.7-39.6v-0.8h53.6
		l48.6,119.5l43.7-119.5h51.1v0.8C218.5,47.6,211.1,67.4,211.1,84.7z"/>
	<path d="M365.2,201.7c-1.6,13.2-11.5,23.1-28,23.1c-14,0-23.9-7.4-28-20.6c-5.8,9.9-18.1,20.6-37.9,20.6
		c-26.4,0-40.4-20.6-40.4-39.6c0-25.5,23.9-42,51.1-40.4c6.6,0,16.5,1.6,24.7,4.9v-14c0-17.3-2.5-28-9.1-28
		c-14,0-53.6,31.3-55.2,33.8h-0.8v-36.3c23.1-5.8,45.3-8.2,59.3-8.2c34.6,0,47.8,18.1,47.8,42.9v47
		C349.5,200,352.8,206.6,365.2,201.7L365.2,201.7z M308.3,196.7c0-1.6,0-4.1,0-6.6v-33.8c-1.6,0-4.1,0-6.6-0.8
		c-18.1-0.8-26.4,9.1-26.4,22.3c0,13.2,7.4,23.9,20.6,23.9C300.9,202.5,305,200.9,308.3,196.7z"/>
	<path d="M491.3,185.2l0.8,0.8c-5.8,16.5-24.7,38.7-56.9,38.7c-30.5,0-64.3-20.6-64.3-65.1c0-40.4,27.2-64.3,65.1-64.3
		c43.7,0,58.5,32.1,58.5,61.8h-78.3c2.5,23.9,13.2,41.2,37.1,41.2C466.6,198.4,477.3,194.3,491.3,185.2z M415.5,144.8
		c0,2.5,0,4.9,0,6.6l37.9-9.1c0-16.5-3.3-36.3-18.1-36.3C419.6,106.1,415.5,126.7,415.5,144.8z"/>
	<path d="M508.6,221.5c0-1.6,7.4-21.4,7.4-39.6v-44.5c0-18.1-6.6-37.9-7.4-39.6V97h48.6v84.9c0,18.1,6.6,37.9,7.4,39.6v0.8h-55.2
		v-0.8H508.6z"/>
	<path d="M576.2,221.5c0.8-1.6,7.4-21.4,7.4-39.6V83c0-18.1-7.4-37.1-7.4-38.7v-0.8l49.5-5.8v144.2c0,18.1,6.6,37.9,7.4,39.6v0.8
		h-55.2v-0.8H576.2z"/>
	<path d="M771.5,97.8c-0.8,1.6-12.4,19.8-19,35.4l-45.3,108c-12.4,31.3-32.1,37.1-65.1,25.5l8.2-37.9h0.8c18.1,19,37.9,28,47.8,4.9
		l2.5-5.8l-43.7-94c-7.4-16.5-19.8-33.8-21.4-35.4v-0.8h65.9v0.8c-0.8,1.6-7.4,18.1-0.8,33l21.4,46.2l19-45.3
		c6.6-14.8-1.6-32.1-2.5-33.8v-0.8h33l0,0H771.5z"/>
	<path d="M908.3,169.6v52.7H781.4v-0.8c0-1.6,7.4-21.4,7.4-39.6V84.7c0-18.1-6.6-37.9-7.4-39.6v-0.8h57.7v0.8
		c0,1.6-7.4,21.4-7.4,39.6v126.9h23.1c23.1,0,48.6-40.4,51.1-41.2h2.5V169.6z"/>
	<path d="M919,159.7c0-43.7,31.3-63.5,66.8-63.5c35.4,0,66.8,19.8,66.8,63.5c0,44.5-31.3,65.9-66.8,65.9
		C950.3,224.8,919,203.3,919,159.7z M1007.2,159.7c0-25.5-4.9-53.6-20.6-53.6c-16.5,0-20.6,28-20.6,53.6s4.1,55.2,20.6,55.2
		C1002.3,214.1,1007.2,185.2,1007.2,159.7z"/>
	<path d="M1066.6,159.7c0-43.7,31.3-63.5,66.8-63.5s66.8,19.8,66.8,63.5c0,44.5-31.3,65.9-66.8,65.9
		C1097.1,224.8,1066.6,203.3,1066.6,159.7z M1153.9,159.7c0-25.5-4.9-53.6-20.6-53.6c-16.5,0-20.6,28-20.6,53.6s4.1,55.2,20.6,55.2
		C1149,214.1,1153.9,185.2,1153.9,159.7z"/>
	<path d="M1258.6,181.9c0,18.1,6.6,37.9,6.6,39.6v0.8H1210v-0.8c0-1.6,7.4-21.4,7.4-39.6V83c0-18.1-7.4-37.1-7.4-38.7v-0.8l49.5-5.8
		v144.2H1258.6z M1346,221.5v0.8h-47.8l-36.3-65.1v-0.8l27.2-23.9c16.5-14.8,8.2-32.1,6.6-34.6V97h49.5v0.8l-47.8,42L1346,221.5z"/>
</g>
<circle cx="532.8" cy="62.2" r="24.7"/>
</svg>
