<?xml version="1.0" encoding="utf-8"?>
<!-- Generator: Adobe Illustrator 27.7.0, SVG Export Plug-In . SVG Version: 6.00 Build 0)  -->
<svg version="1.1" id="레이어_1" xmlns="http://www.w3.org/2000/svg" xmlns:xlink="http://www.w3.org/1999/xlink" x="0px"
	 y="0px" viewBox="0 0 1366 258" style="enable-background:new 0 0 1366 258;" xml:space="preserve">
<style type="text/css">
	.st0{fill:#FFFFFF;}
</style>
<g>
	<path class="st0" d="M201.4,55.5v99.1c0,18.5,6.7,38.6,7.6,40.3v0.8h-58.8v-0.8c0-1.7,6.7-21.8,6.7-40.3v-105l-53.8,146.1H89.7
		l-58-145.3c0,1.7,0,4.2,0,5.9v79c0,26.9,13.4,56.3,14.3,59.6v1.7H5.7v-1.7c0.8-3.4,14.3-32.8,14.3-59.6v-79
		C20,37.8,9.9,17.7,9.1,16v-0.8h54.6L113.2,137l44.5-121.8h52.1V16C209,17.7,201.4,37.8,201.4,55.5z"/>
	<path class="st0" d="M358.5,174.7c-1.7,13.4-11.8,23.5-28.6,23.5c-14.3,0-24.4-7.6-28.6-21c-5.9,10.1-18.5,21-38.6,21
		c-26.9,0-41.2-21-41.2-40.3c0-26,24.4-42.8,52.1-41.2c6.7,0,16.8,1.7,25.2,5v-14.3c0-17.6-2.5-28.6-9.2-28.6
		c-14.3,0-54.6,31.9-56.3,34.4h-0.8v-37c23.5-5.9,46.2-8.4,60.5-8.4c35.3,0,48.7,18.5,48.7,43.7v47.9
		C342.5,173.1,345.9,179.8,358.5,174.7L358.5,174.7z M300.5,169.7c0-1.7,0-4.2,0-6.7v-34.4c-1.7,0-4.2,0-6.7-0.8
		c-18.5-0.8-26.9,9.2-26.9,22.7c0,13.4,7.6,24.4,21,24.4C293,175.6,297.2,173.9,300.5,169.7z"/>
	<path class="st0" d="M487,157.9l0.8,0.8c-5.9,16.8-25.2,39.5-58,39.5c-31.1,0-65.5-21-65.5-66.4c0-41.2,27.7-65.5,66.4-65.5
		c44.5,0,59.6,32.8,59.6,63h-79.8c2.5,24.4,13.4,42,37.8,42C461.8,171.4,472.7,167.2,487,157.9z M409.7,116.8c0,2.5,0,5,0,6.7
		l38.6-9.2c0-16.8-3.4-37-18.5-37C413.9,77.3,409.7,98.3,409.7,116.8z"/>
	<path class="st0" d="M504.6,194.9c0-1.7,7.6-21.8,7.6-40.3v-45.4c0-18.5-6.7-38.6-7.6-40.3v-0.8h49.6v86.5
		c0,18.5,6.7,38.6,7.6,40.3v0.8h-56.3v-0.8H504.6z"/>
	<path class="st0" d="M573.5,194.9c0.8-1.7,7.6-21.8,7.6-40.3V53.8c0-18.5-7.6-37.8-7.6-39.5v-0.8l50.4-5.9v147
		c0,18.5,6.7,38.6,7.6,40.3v0.8h-56.3v-0.8H573.5z"/>
	<path class="st0" d="M772.6,68.9c-0.8,1.7-12.6,20.2-19.3,36.1l-46.2,110c-12.6,31.9-32.8,37.8-66.4,26l8.4-38.6h0.8
		c18.5,19.3,38.6,28.6,48.7,5l2.5-5.9l-44.5-95.8c-7.6-16.8-20.2-34.4-21.8-36.1v-0.8H702v0.8c-0.8,1.7-7.6,18.5-0.8,33.6l21.8,47
		l19.3-46.2c6.7-15.1-1.7-32.8-2.5-34.4v-0.8h33.6l0,0H772.6z"/>
	<path class="st0" d="M912,142v53.8H782.6v-0.8c0-1.7,7.6-21.8,7.6-40.3V55.5c0-18.5-6.7-38.6-7.6-40.3v-0.8h58.8v0.8
		c0,1.7-7.6,21.8-7.6,40.3v129.4h23.5c23.5,0,49.6-41.2,52.1-42h2.5V142z"/>
	<path class="st0" d="M922.9,131.9c0-44.5,31.9-64.7,68-64.7c36.1,0,68,20.2,68,64.7c0,45.4-31.9,67.2-68,67.2
		C954.8,198.3,922.9,176.4,922.9,131.9z M1012.8,131.9c0-26-5-54.6-21-54.6c-16.8,0-21,28.6-21,54.6s4.2,56.3,21,56.3
		C1007.7,187.3,1012.8,157.9,1012.8,131.9z"/>
	<path class="st0" d="M1073.3,131.9c0-44.5,31.9-64.7,68-64.7c36.1,0,68,20.2,68,64.7c0,45.4-31.9,67.2-68,67.2
		C1104.3,198.3,1073.3,176.4,1073.3,131.9z M1162.3,131.9c0-26-5-54.6-21-54.6c-16.8,0-21,28.6-21,54.6s4.2,56.3,21,56.3
		C1157.3,187.3,1162.3,157.9,1162.3,131.9z"/>
	<path class="st0" d="M1269,154.6c0,18.5,6.7,38.6,6.7,40.3v0.8h-56.3v-0.8c0-1.7,7.6-21.8,7.6-40.3V53.8c0-18.5-7.6-37.8-7.6-39.5
		v-0.8l50.4-5.9v147H1269z M1358,194.9v0.8h-48.7l-37-66.4v-0.8l27.7-24.4c16.8-15.1,8.4-32.8,6.7-35.3v-0.8h50.4v0.8l-48.7,42.8
		L1358,194.9z"/>
</g>
<circle class="st0" cx="529" cy="33.6" r="25.2"/>
</svg>
